<svg width="20" height="20" viewBox="0 0 20 20" fill="none" xmlns="http://www.w3.org/2000/svg">
<g clip-path="url(#clip0_906_617)">
<path d="M16.6667 7.5H9.16667C8.24619 7.5 7.5 8.24619 7.5 9.16667V16.6667C7.5 17.5871 8.24619 18.3333 9.16667 18.3333H16.6667C17.5871 18.3333 18.3333 17.5871 18.3333 16.6667V9.16667C18.3333 8.24619 17.5871 7.5 16.6667 7.5Z" stroke="white" stroke-opacity="0.6" stroke-width="2" stroke-linecap="round" stroke-linejoin="round"/>
<path d="M4.16669 12.5H3.33335C2.89133 12.5 2.4674 12.3244 2.15484 12.0118C1.84228 11.6992 1.66669 11.2753 1.66669 10.8333V3.33329C1.66669 2.89127 1.84228 2.46734 2.15484 2.15478C2.4674 1.84222 2.89133 1.66663 3.33335 1.66663H10.8334C11.2754 1.66663 11.6993 1.84222 12.0119 2.15478C12.3244 2.46734 12.5 2.89127 12.5 3.33329V4.16663" stroke="white" stroke-opacity="0.6" stroke-width="2" stroke-linecap="round" stroke-linejoin="round"/>
</g>
<defs>
<clipPath id="clip0_906_617">
<rect width="20" height="20" fill="white"/>
</clipPath>
</defs>
</svg>
