<svg width="24" height="24" viewBox="0 0 24 24" fill="none" xmlns="http://www.w3.org/2000/svg">
<path d="M16.12 9.44666V9.41332C16.12 7.41332 14.56 5.94666 12.2 5.94666C11.4776 5.93472 10.7614 6.08204 10.1023 6.37816C9.44325 6.67427 8.85749 7.11192 8.38667 7.65999C8.32126 7.72061 8.26868 7.79373 8.23204 7.87504C8.19539 7.95634 8.17543 8.04417 8.17334 8.13332C8.1733 8.21558 8.1898 8.297 8.22186 8.37275C8.25393 8.4485 8.30091 8.51702 8.35999 8.57424C8.41908 8.63146 8.48908 8.67622 8.56581 8.70584C8.64255 8.73546 8.72446 8.74934 8.80667 8.74666C8.98279 8.74229 9.15119 8.67351 9.28001 8.55332C9.63632 8.13578 10.0789 7.80038 10.5772 7.57021C11.0755 7.34004 11.6178 7.22056 12.1667 7.21999C13.74 7.21999 14.72 8.23332 14.72 9.49332V9.52666C14.72 11 13.5467 11.82 11.6933 11.96C11.6183 11.9629 11.5447 11.9816 11.4774 12.0149C11.4101 12.0482 11.3506 12.0954 11.3027 12.1533C11.2549 12.2112 11.2198 12.2785 11.1998 12.3509C11.1798 12.4233 11.1754 12.4991 11.1867 12.5733V14.4067C11.2033 14.5717 11.2807 14.7246 11.404 14.8355C11.5273 14.9465 11.6875 15.0075 11.8533 15.0067H11.9267C12.0917 14.9901 12.2446 14.9126 12.3555 14.7893C12.4665 14.666 12.5275 14.5058 12.5267 14.34V12.9667C14.5 12.6667 16.12 11.6333 16.12 9.44666V9.44666Z" fill="white" fill-opacity="0.8"/>
<path d="M11.8534 18.3C12.3136 18.3 12.6867 17.9269 12.6867 17.4667C12.6867 17.0064 12.3136 16.6333 11.8534 16.6333C11.3931 16.6333 11.02 17.0064 11.02 17.4667C11.02 17.9269 11.3931 18.3 11.8534 18.3Z" fill="white" fill-opacity="0.8"/>
<path d="M22.08 8.54001C21.6749 8.72559 21.2466 8.85565 20.8067 8.92668C21.5102 10.9296 21.5125 13.1121 20.8131 15.1165C20.1137 17.1209 18.7542 18.8283 16.9574 19.9588C15.1605 21.0893 13.033 21.5759 10.9233 21.3388C8.81372 21.1017 6.8472 20.1551 5.34609 18.654C3.84497 17.1528 2.89831 15.1863 2.66124 13.0767C2.42417 10.9671 2.91077 8.83952 4.04128 7.04268C5.17179 5.24584 6.87915 3.88633 8.88354 3.18695C10.8879 2.48758 13.0704 2.48983 15.0734 3.19335C15.1445 2.75346 15.2745 2.32516 15.46 1.92001C13.1709 1.12849 10.681 1.13653 8.39703 1.94284C6.11305 2.74915 4.16996 4.30607 2.8851 6.35931C1.60024 8.41256 1.04955 10.8408 1.32297 13.2474C1.59638 15.6541 2.67774 17.8969 4.39044 19.6096C6.10314 21.3223 8.34597 22.4037 10.7526 22.6771C13.1593 22.9505 15.5875 22.3998 17.6407 21.1149C19.694 19.8301 21.2509 17.887 22.0572 15.603C22.8635 13.319 22.8716 10.8292 22.08 8.54001V8.54001Z" fill="white" fill-opacity="0.8"/>
<path d="M20 7.33332C21.8409 7.33332 23.3333 5.84094 23.3333 3.99999C23.3333 2.15904 21.8409 0.666656 20 0.666656C18.159 0.666656 16.6666 2.15904 16.6666 3.99999C16.6666 5.84094 18.159 7.33332 20 7.33332Z" fill="white" fill-opacity="0.8"/>
</svg>
