<svg width="24" height="24" viewBox="0 0 24 24" fill="none" xmlns="http://www.w3.org/2000/svg">
<path d="M22.1836 11.836L13.1273 2.78443L12.5203 2.1774C12.382 2.04 12.1949 1.96289 12 1.96289C11.805 1.96289 11.618 2.04 11.4797 2.1774L1.81639 11.836C1.67467 11.9772 1.56266 12.1453 1.48698 12.3305C1.41131 12.5156 1.37349 12.7141 1.37577 12.9141C1.38514 13.7391 2.07186 14.3977 2.89686 14.3977H3.89296V22.0313H20.107V14.3977H21.1242C21.525 14.3977 21.9023 14.2407 22.1859 13.9571C22.3256 13.8179 22.4362 13.6524 22.5114 13.4701C22.5867 13.2879 22.625 13.0925 22.6242 12.8954C22.6242 12.4969 22.4672 12.1196 22.1836 11.836ZM13.3125 20.3438H10.6875V15.5626H13.3125V20.3438ZM18.4195 12.7102V20.3438H14.8125V15.0001C14.8125 14.4821 14.393 14.0626 13.875 14.0626H10.125C9.60702 14.0626 9.18749 14.4821 9.18749 15.0001V20.3438H5.58046V12.7102H3.33046L12.0023 4.04537L12.5437 4.58678L20.6719 12.7102H18.4195Z" fill="black"/>
</svg>
