<svg width="40" height="40" viewBox="0 0 40 40" fill="none" xmlns="http://www.w3.org/2000/svg">
<g clip-path="url(#clip0_1214_1359)">
<path fill-rule="evenodd" clip-rule="evenodd" d="M19.9913 22.4695L20.2725 22.4402V22.4695C20.6434 22.481 21.0097 22.5543 21.3564 22.6862L21.9658 22.9323L19.9971 23.694L18.2043 22.9968L18.7667 22.739C19.1515 22.5706 19.5655 22.479 19.9854 22.4695H19.9913V22.4695ZM33.6312 27.4438V27.5024L33.5961 28.932L23.3485 24.983L28.7096 22.8503L28.8268 23.0026C29.2252 23.5241 29.6763 24.0163 30.1744 24.4323C30.9185 25.0533 31.8032 25.4869 32.7407 25.7037C32.9742 25.7696 33.1825 25.9043 33.3383 26.0904C33.6547 26.4654 33.7074 26.9575 33.6371 27.4262V27.4438H33.6312ZM17.3547 25.2642L19.2999 26.0376L7.62274 30.6839H7.58173C7.41542 30.7048 7.24654 30.6895 7.08673 30.6389C6.92692 30.5884 6.77997 30.5038 6.65599 30.3909C6.48795 30.2143 6.38113 29.9884 6.35132 29.7464L6.31616 29.5472L6.50951 29.4711C10.0894 28.0707 13.6752 26.6821 17.2609 25.2994L17.3547 25.2642V25.2642ZM6.36303 27.4438V27.4204C6.29273 26.9517 6.3396 26.4595 6.65599 26.0845C6.81179 25.8985 7.02006 25.7637 7.25362 25.6978C8.19693 25.481 9.08165 25.0533 9.82576 24.4264C10.3238 24.0104 10.7749 23.5182 11.1675 22.9968L11.2847 22.8444L16.6516 24.9771L16.0305 25.2115C12.9311 26.4068 9.83747 27.6137 6.74388 28.8148L6.40405 28.9496L6.36303 27.4966V27.438V27.4438ZM17.2082 24.649L11.2905 22.2995L11.2788 22.2878L8.31997 21.116C7.8777 20.9691 7.46218 20.7514 7.08956 20.4715C6.74974 20.2078 6.45092 19.8504 6.40405 19.4052L6.35718 18.9833L17.759 23.3776L17.8 23.3952L19.8682 24.192L19.9444 24.2213L22.5458 25.2291L22.5869 25.2408L33.6781 29.5179L33.6547 29.7171C33.6289 29.9614 33.5264 30.1911 33.3617 30.3734C33.1098 30.637 32.7641 30.7073 32.4125 30.6839H32.3715L20.1378 25.815L20.0499 25.7798L17.2082 24.649V24.649ZM32.2133 19.5341L32.2426 19.5223L33.643 18.9833L33.5961 19.4052C33.5859 19.491 33.5663 19.5755 33.5375 19.6571C33.409 19.9853 33.1869 20.2685 32.8988 20.4715C32.6621 20.6491 32.4067 20.8004 32.1372 20.9227C31.9907 20.993 31.8442 21.0457 31.6919 21.1101L28.7272 22.2878L28.6979 22.2995L22.6396 24.7076L20.7178 23.9635L22.3876 23.319C22.4052 23.319 22.4287 23.3073 22.4462 23.2956L32.2133 19.5341V19.5341ZM20.3838 21.6433C20.5586 21.0345 20.8759 20.4761 21.3096 20.0145C22.1709 19.0946 23.4188 18.5732 24.6141 18.2509C25.2469 18.0751 25.8914 17.9462 26.5417 17.8408L28.2409 17.5771C28.61 17.5185 29.0143 17.4599 29.3658 17.3428C29.4244 17.3193 29.6998 17.2197 29.7174 17.1435L29.7232 17.1377V6.90186L31.979 8.50139L31.8794 19.1063L22.4111 22.7566L22.2939 22.6511C22.0686 22.4569 21.8107 22.3042 21.5322 22.1999C21.2326 22.0858 20.9195 22.011 20.6006 21.9773L20.2959 21.9421L20.3838 21.6492V21.6433ZM19.3995 22.0124C19.1445 22.0554 18.895 22.1262 18.6554 22.2234C18.3726 22.3376 18.1141 22.5046 17.8937 22.7155L17.7765 22.8327L8.02702 19.077L8.02116 8.50139L10.2769 6.90186V17.1435C10.2769 17.2959 10.4117 17.4013 10.5581 17.4013C11.1972 17.4267 11.8347 17.4834 12.4682 17.5713C13.6107 17.7295 14.7708 17.9814 15.8489 18.3798C17.4309 18.9657 19.089 19.9618 19.5987 21.6785L19.6866 21.9597L19.3995 22.0124V22.0124Z" fill="black"/>
<path fill-rule="evenodd" clip-rule="evenodd" d="M19.7451 11.9172V20.5887L19.2764 20.0321C17.507 17.8994 13.6693 17.1025 11.0327 16.9092L10.7983 16.8916V6.68506L11.0795 6.70849C13.5111 6.937 16.7453 7.55806 18.5675 9.3568C19.001 9.78452 19.3701 10.2943 19.5752 10.8743C19.6631 11.1087 19.7393 11.4016 19.7393 11.6536V11.9172H19.7451ZM20.2549 11.7063V11.6594C20.2549 11.4133 20.3369 11.1145 20.4189 10.886C20.6344 10.3109 20.9746 9.7907 21.415 9.36266C23.2371 7.56392 26.4831 6.937 28.9205 6.70849L29.2017 6.68506V16.8916L28.9673 16.9092C26.3307 17.1025 22.4989 17.9052 20.7119 20.0321L20.2549 20.577V11.7122V11.7063ZM6.04658 31.2405H33.9476C34.2226 31.2405 34.4864 31.3498 34.6809 31.5442C34.8754 31.7387 34.9846 32.0025 34.9846 32.2776C34.9846 32.5526 34.8754 32.8164 34.6809 33.0109C34.4864 33.2054 34.2226 33.3146 33.9476 33.3146H6.04658C5.77153 33.3146 5.50776 33.2054 5.31327 33.0109C5.11878 32.8164 5.00952 32.5526 5.00952 32.2776C5.00952 32.0025 5.11878 31.7387 5.31327 31.5442C5.50776 31.3498 5.77153 31.2405 6.04658 31.2405V31.2405Z" fill="black"/>
</g>
<defs>
<clipPath id="clip0_1214_1359">
<rect width="40" height="40" fill="white"/>
</clipPath>
</defs>
</svg>
