<svg width="24" height="24" viewBox="0 0 24 24" fill="none" xmlns="http://www.w3.org/2000/svg">
<g clip-path="url(#clip0_935_682)">
<path d="M2 3H8C9.06087 3 10.0783 3.42143 10.8284 4.17157C11.5786 4.92172 12 5.93913 12 7V21C12 20.2044 11.6839 19.4413 11.1213 18.8787C10.5587 18.3161 9.79565 18 9 18H2V3Z" stroke="black" stroke-width="2" stroke-linecap="round" stroke-linejoin="round"/>
<path d="M24 3H18C16.9391 3 15.9217 3.42143 15.1716 4.17157C14.4214 4.92172 14 5.93913 14 7V21C14 20.2044 14.3161 19.4413 14.8787 18.8787C15.4413 18.3161 16.2044 18 17 18H24V3Z" stroke="black" stroke-width="2" stroke-linecap="round" stroke-linejoin="round"/>
</g>
<defs>
<clipPath id="clip0_935_682">
<rect width="24" height="24" fill="white"/>
</clipPath>
</defs>
</svg>
