<svg width="20" height="20" viewBox="0 0 20 20" fill="none" xmlns="http://www.w3.org/2000/svg">
<g clip-path="url(#clip0_949_356)">
<path d="M18.7344 15.6139L15.567 12.4466L13.1308 11.44C13.942 10.2865 14.3766 8.91024 14.375 7.5C14.375 3.7091 11.2909 0.625 7.5 0.625C3.7091 0.625 0.625 3.7091 0.625 7.5C0.625 11.2909 3.7091 14.375 7.5 14.375C8.92251 14.3766 10.3101 13.9345 11.4695 13.1103L12.4734 15.54L15.6406 18.7075C15.8437 18.9106 16.0849 19.0717 16.3503 19.1817C16.6157 19.2916 16.9002 19.3482 17.1874 19.3482C17.4747 19.3482 17.7592 19.2917 18.0246 19.1817C18.29 19.0718 18.5311 18.9107 18.7343 18.7076C18.9374 18.5044 19.0986 18.2633 19.2085 17.9979C19.3184 17.7325 19.375 17.448 19.375 17.1608C19.375 16.8735 19.3185 16.589 19.2085 16.3236C19.0986 16.0582 18.9375 15.817 18.7344 15.6139ZM1.875 7.5C1.875 4.39844 4.39844 1.875 7.5 1.875C10.6016 1.875 13.125 4.39844 13.125 7.5C13.125 10.6016 10.6016 13.125 7.5 13.125C4.39844 13.125 1.875 10.6016 1.875 7.5ZM17.8504 17.8236C17.6745 17.9991 17.4361 18.0977 17.1875 18.0977C16.9389 18.0977 16.7005 17.9991 16.5246 17.8236L13.5335 14.8325L12.6001 12.5733L14.8594 13.5067L17.8505 16.4978C18.026 16.6737 18.1246 16.9121 18.1246 17.1607C18.1246 17.4092 18.026 17.6476 17.8504 17.8236Z" fill="black"/>
</g>
<defs>
<clipPath id="clip0_949_356">
<rect width="20" height="20" fill="white"/>
</clipPath>
</defs>
</svg>
