<svg width="20" height="20" viewBox="0 0 20 20" fill="none" xmlns="http://www.w3.org/2000/svg">
<path d="M10 10.8333C10.4603 10.8333 10.8334 10.4602 10.8334 9.99996C10.8334 9.53972 10.4603 9.16663 10 9.16663C9.53978 9.16663 9.16669 9.53972 9.16669 9.99996C9.16669 10.4602 9.53978 10.8333 10 10.8333Z" stroke="white" stroke-width="2" stroke-linecap="round" stroke-linejoin="round"/>
<path d="M10 5.00004C10.4603 5.00004 10.8334 4.62694 10.8334 4.16671C10.8334 3.70647 10.4603 3.33337 10 3.33337C9.53978 3.33337 9.16669 3.70647 9.16669 4.16671C9.16669 4.62694 9.53978 5.00004 10 5.00004Z" stroke="white" stroke-width="2" stroke-linecap="round" stroke-linejoin="round"/>
<path d="M10 16.6667C10.4603 16.6667 10.8334 16.2936 10.8334 15.8333C10.8334 15.3731 10.4603 15 10 15C9.53978 15 9.16669 15.3731 9.16669 15.8333C9.16669 16.2936 9.53978 16.6667 10 16.6667Z" stroke="white" stroke-width="2" stroke-linecap="round" stroke-linejoin="round"/>
</svg>
